<svg data-v-423bf9ae="" xmlns="http://www.w3.org/2000/svg" viewBox="0 0 296.3758328877367 60" class="font"><!----><!----><!----><g data-v-423bf9ae="" id="fb9c92ea-c085-4f99-9f08-dbb8978b26bc" fill="white" transform="matrix(5.7526364568010235,0,0,5.7526364568010235,-6.442954335379284,-1.6107389002153774)"><path d="M3.12 5.05L3.12 5.05L8.19 10.71L8.72 10.71L8.72 0.50L6.71 0.50L6.71 6.16L1.65 0.28L1.12 0.28L1.12 10.50L3.12 10.50L3.12 5.05ZM16.16 10.50L16.16 10.50L16.16 8.50L12.98 8.50L12.98 6.50L15.61 6.50L15.61 4.49L12.98 4.49L12.98 2.49L15.99 2.49L15.99 0.49L10.98 0.49L10.98 10.50L16.16 10.50ZM21.69 10.50L21.69 2.49L24.18 2.49L24.18 0.50L17.19 0.50L17.19 2.49L19.68 2.49L19.68 10.50L21.69 10.50L21.69 10.50ZM30.18 10.64L30.18 10.64C37.07 10.64 37.07 0.32 30.18 0.32C23.30 0.32 23.30 10.64 30.18 10.64ZM30.18 8.57L30.18 8.57C26.18 8.57 26.18 2.38 30.18 2.38C34.19 2.38 34.19 8.57 30.18 8.57ZM44.48 10.50L44.48 10.50L42.15 6.37C45.09 5.52 44.74 0.49 41.17 0.49L37.23 0.49L37.23 10.50L39.23 10.50L39.23 6.68L40.19 6.68L42.21 10.50ZM39.23 2.49L40.99 2.49C42.35 2.49 42.35 4.73 40.99 4.73L39.23 4.73L39.23 4.73ZM52.18 2.81L52.18 2.81L52.42 0.76C51.81 0.49 51.14 0.36 50.44 0.36C43.67 0.36 43.65 10.53 50.44 10.53C51.14 10.53 52.02 10.36 52.64 10.11L52.37 8.04C52.00 8.23 51.31 8.48 50.44 8.48C46.48 8.48 46.48 2.38 50.44 2.38C51.31 2.38 51.80 2.62 52.18 2.81Z"></path></g><!----><!----></svg>